<?xml version="1.0" encoding="iso-8859-1"?>

<!DOCTYPE svg PUBLIC "-//W3C//DTD SVG 1.1//EN" "http://www.w3.org/Graphics/SVG/1.1/DTD/svg11.dtd">
<!-- Uploaded to: SVG Repo, www.svgrepo.com, Generator: SVG Repo Mixer Tools -->
<svg version="1.1" id="_x35_" xmlns="http://www.w3.org/2000/svg" xmlns:xlink="http://www.w3.org/1999/xlink" 
	 viewBox="0 0 512 512"  xml:space="preserve">
<g>
	<g>
		<g>
			<g>
				<polygon style="fill:#4F4B4B;" points="118.429,512 64.9,512 64.9,468.34 170.879,468.34 				"/>
				<polygon style="fill:#4F4B4B;" points="427.446,512 373.917,512 321.467,468.34 427.446,468.34 				"/>
			</g>
			<rect x="0.5" style="fill:#A8AD75;" width="481.805" height="481.805"/>
			<rect x="48.204" y="47.681" style="fill:#F1F5D3;" width="386.398" height="386.398"/>
			<path style="fill:#395051;" d="M482.305,114.466v69.17h-84.674c-19.034,0-34.585-15.551-34.585-34.585
				c0-9.517,3.888-18.175,10.161-24.424c6.249-6.273,14.907-10.161,24.424-10.161H482.305z"/>
			<path style="fill:#395051;" d="M482.305,274.272v69.17h-84.674c-19.034,0-34.585-15.551-34.585-34.585
				c0-9.517,3.888-18.175,10.161-24.424c6.249-6.273,14.907-10.161,24.424-10.161H482.305z"/>
			<g>
				<g>
					<circle style="fill:#A8AD75;" cx="250.464" cy="260.757" r="99.382"/>
					<g>
						<path style="fill:#FFFFFF;" d="M258.384,185.613c-0.316-0.079-0.711-0.079-1.027-0.079c-4.186,0-7.74,3.081-8.214,7.346
							c-0.553,4.581,2.764,8.767,7.345,9.32h0.948c4.186,0,7.819-3.08,8.293-7.345c0.079-0.316,0.079-0.632,0.079-1.027
							C265.809,189.721,262.65,186.087,258.384,185.613z M233.267,194.855c-1.264-3.318-4.423-5.371-7.819-5.371
							c-1.027,0-2.054,0.158-3.001,0.553c-4.266,1.659-6.398,6.477-4.818,10.821c1.343,3.318,4.502,5.371,7.82,5.371
							c1.027,0,1.975-0.237,3.002-0.553c3.317-1.264,5.371-4.423,5.371-7.819C233.82,196.908,233.662,195.882,233.267,194.855z
							 M295.349,202.042c-0.553-1.501-1.58-2.764-3.001-3.712c-1.501-1.027-3.16-1.501-4.739-1.501
							c-2.686,0-5.292,1.264-6.872,3.633c-2.607,3.792-1.659,9.004,2.132,11.611c0.474,0.395,1.027,0.632,1.58,0.869
							c1.027,0.395,2.054,0.632,3.081,0.632c2.685,0,5.371-1.264,6.951-3.633c1.027-1.422,1.501-3.081,1.501-4.739
							C295.981,204.096,295.744,203.069,295.349,202.042z M204.517,210.02c-1.58-1.422-3.554-2.133-5.529-2.133
							c-2.37,0-4.66,0.948-6.24,2.843c-3.08,3.397-2.765,8.689,0.711,11.769c1.58,1.422,3.554,2.053,5.529,2.053
							c2.369,0,4.66-0.948,6.24-2.764c1.422-1.58,2.132-3.554,2.132-5.529C207.36,213.89,206.413,211.6,204.517,210.02z
							 M316.438,225.343c-1.501-2.843-4.423-4.423-7.425-4.423c-1.264,0-2.606,0.316-3.87,0.948
							c-4.107,2.133-5.687,7.187-3.475,11.295c1.501,2.843,4.423,4.423,7.425,4.423c1.264,0,2.607-0.316,3.87-0.948
							c2.844-1.58,4.423-4.423,4.423-7.424C317.386,227.949,317.07,226.606,316.438,225.343z M186.035,236.637
							c-0.632-0.158-1.264-0.237-1.896-0.237c-3.791,0-7.266,2.528-8.135,6.398c-1.106,4.502,1.658,9.004,6.081,10.11
							c0.711,0.158,1.343,0.237,1.975,0.237c3.792,0,7.188-2.528,8.136-6.398c0.158-0.632,0.237-1.343,0.237-1.975
							C192.432,240.982,189.905,237.585,186.035,236.637z M316.833,252.119c-4.581,0.079-8.293,3.712-8.293,8.214
							c0,0.079,0,0.079,0,0.158c0,0.158,0,0.237,0,0.237c0,4.66,3.712,8.372,8.293,8.372c4.66,0,8.373-3.712,8.373-8.372
							c0,0,0,0,0-0.079s0-0.158,0-0.158C325.206,255.831,321.414,252.119,316.833,252.119z M192.275,275.024
							c-0.948-3.87-4.423-6.398-8.215-6.398c-0.632,0-1.264,0.079-1.896,0.237c-4.502,1.105-7.187,5.687-6.16,10.11
							c0.948,3.791,4.423,6.398,8.135,6.398c0.632,0,1.343-0.079,1.975-0.237c3.87-0.948,6.398-4.423,6.398-8.136
							C192.511,276.366,192.432,275.656,192.275,275.024z M313.042,284.66c-1.264-0.632-2.607-0.948-3.87-0.948
							c-3.001,0-5.845,1.579-7.424,4.423c-2.133,4.107-0.553,9.162,3.554,11.295c1.263,0.632,2.527,0.948,3.87,0.948
							c3.001,0,5.924-1.58,7.346-4.423c0.711-1.264,1.027-2.607,1.027-3.949C317.544,289.004,315.885,286.161,313.042,284.66z
							 M205.386,299.983c-1.422-1.58-3.317-2.528-5.213-2.765c-0.316-0.079-0.711-0.079-1.027-0.079
							c-1.975,0-3.949,0.711-5.529,2.133c-1.816,1.659-2.764,3.87-2.764,6.161c0,0.316,0,0.711,0.079,1.027
							c0.158,1.579,0.869,3.238,2.053,4.581c1.659,1.896,3.871,2.843,6.161,2.843c1.975,0,3.949-0.711,5.608-2.132
							c1.816-1.659,2.764-3.949,2.764-6.24C207.518,303.537,206.807,301.563,205.386,299.983z M294.638,311.435
							c-1.579-2.369-4.186-3.633-6.872-3.633c-1.658,0-3.317,0.474-4.739,1.501c-3.791,2.606-4.739,7.819-2.054,11.61
							c1.58,2.369,4.186,3.633,6.793,3.633c1.659,0,3.318-0.474,4.818-1.501c2.29-1.58,3.554-4.186,3.554-6.793
							C296.139,314.595,295.665,312.936,294.638,311.435z M228.686,316.017c-1.027-0.395-2.054-0.553-3.001-0.553
							c-3.396,0-6.556,2.054-7.819,5.371c-1.58,4.266,0.553,9.083,4.897,10.742c0.948,0.395,1.975,0.553,2.922,0.553
							c3.396,0,6.556-2.054,7.819-5.371c0.395-0.948,0.553-1.975,0.553-3.001C234.057,320.361,232.003,317.202,228.686,316.017z
							 M265.967,326.601c-0.474-4.266-4.107-7.345-8.215-7.345c-0.395,0-0.711,0-1.027,0.079c-4.581,0.553-7.899,4.739-7.346,9.321
							c0.553,4.186,4.186,7.345,8.293,7.345c0.316,0,0.711-0.079,1.027-0.079c4.265-0.474,7.346-4.107,7.346-8.293
							C266.046,327.311,266.046,326.917,265.967,326.601z"/>
					</g>
					<circle style="fill:#E0E0E0;" cx="250.464" cy="260.757" r="40.548"/>
				</g>
				<polygon style="fill:#A8AD75;" points="236.665,164.157 250.952,139.411 265.239,164.157 				"/>
				<g>
					<polygon style="fill:#99414D;" points="264.833,108.006 250.546,132.752 236.259,108.006 					"/>
					<circle style="fill:#99414D;" cx="250.546" cy="98.565" r="23.852"/>
				</g>
				<circle style="fill:#FBF2C0;" cx="250.546" cy="98.167" r="7.155"/>
			</g>
			<path style="fill:#C2C1C1;" d="M109.423,375.245L109.423,375.245c-10.057,0-18.286-8.229-18.286-18.286V143.883
				c0-10.057,8.229-18.286,18.286-18.286h0c10.057,0,18.286,8.229,18.286,18.286v213.076
				C127.709,367.016,119.48,375.245,109.423,375.245z"/>
			<path style="fill:#ABABAB;" d="M109.026,218.618L109.026,218.618c-14.649,0-26.634-11.986-26.634-26.634v-15.901
				c0-14.649,11.986-26.635,26.634-26.635h0c14.649,0,26.634,11.986,26.634,26.635v15.901
				C135.66,206.633,123.674,218.618,109.026,218.618z"/>
			<circle style="fill:#F1F5D3;" cx="407.172" cy="149.647" r="11.33"/>
			<circle style="fill:#F1F5D3;" cx="407.172" cy="310.05" r="11.33"/>
		</g>
		<polygon style="opacity:0.09;fill:#040000;" points="15.609,481.782 64.9,481.782 64.9,512 118.429,512 154.729,481.782 
			337.617,481.782 373.917,512 427.446,512 427.446,481.782 482.305,481.782 482.305,343.443 482.305,274.272 482.305,183.636 
			482.305,114.466 482.305,15.086 		"/>
	</g>
	<rect y="0.698" style="opacity:0.09;fill:#FFFFFF;" width="481.805" height="12.796"/>
</g>
</svg>